<svg xmlns="http://www.w3.org/2000/svg" xmlns:xlink="http://www.w3.org/1999/xlink" width="1123" zoomAndPan="magnify" viewBox="0 0 842.25 595.499986" height="794" preserveAspectRatio="xMidYMid meet" version="1.0"><defs><g/><clipPath id="78878780fb"><path d="M 0.429688 0.105469 L 237 0.105469 L 237 384 L 0.429688 384 Z M 0.429688 0.105469 " clip-rule="nonzero"/></clipPath><clipPath id="49c0305e9f"><rect x="0" width="237" y="0" height="384"/></clipPath><clipPath id="8de256d20f"><path d="M 64 0.371094 L 82 0.371094 L 82 91 L 64 91 Z M 64 0.371094 " clip-rule="nonzero"/></clipPath><clipPath id="e9fde7fb07"><path d="M 149 0.371094 L 208 0.371094 L 208 92 L 149 92 Z M 149 0.371094 " clip-rule="nonzero"/></clipPath><clipPath id="33861a57e4"><rect x="0" width="513" y="0" height="118"/></clipPath><clipPath id="9a6a4292d9"><rect x="0" width="218" y="0" height="45"/></clipPath><clipPath id="cdbba0dcba"><rect x="0" width="322" y="0" height="384"/></clipPath><clipPath id="9c95ab39b0"><path d="M 589 295 L 724.828125 295 L 724.828125 411 L 589 411 Z M 589 295 " clip-rule="nonzero"/></clipPath><clipPath id="ba4f8a2c77"><rect x="0" width="136" y="0" height="116"/></clipPath><clipPath id="8c6fdcc26d"><rect x="0" width="232" y="0" height="44"/></clipPath><clipPath id="57839b0b6b"><path d="M 205 440 L 559 440 L 559 502.699219 L 205 502.699219 Z M 205 440 " clip-rule="nonzero"/></clipPath><clipPath id="1819b20b06"><rect x="0" width="354" y="0" height="63"/></clipPath><clipPath id="641f876e79"><rect x="0" width="725" y="0" height="503"/></clipPath></defs><g transform="matrix(1, 0, 0, 1, 54, 33)"><g clip-path="url(#641f876e79)"><g clip-path="url(#78878780fb)"><g><g clip-path="url(#49c0305e9f)"><g fill="#f3efeb" fill-opacity="1"><g transform="translate(1.245871, 264.888759)"><g><path d="M 219.546875 -209.53125 C 228.828125 -209.53125 233.46875 -205.84375 233.46875 -198.46875 C 233.46875 -187.5 224.988281 -175.1875 208.03125 -161.53125 C 191.882812 -148.664062 172.046875 -137.492188 148.515625 -128.015625 C 123.785156 -118.242188 101 -112.863281 80.15625 -111.875 C 49.351562 -77.875 33.953125 -51.203125 33.953125 -31.859375 C 33.953125 -16.503906 41.226562 -7.332031 55.78125 -4.34375 C 55.78125 -31.257812 65.054688 -55.632812 83.609375 -77.46875 C 95.066406 -90.925781 108.078125 -100.300781 122.640625 -105.59375 C 129.816406 -108.28125 137.367188 -109.625 145.296875 -109.625 C 153.222656 -109.625 159.378906 -107.703125 163.765625 -103.859375 C 168.148438 -100.023438 170.34375 -95.113281 170.34375 -89.125 C 170.34375 -83.144531 169.070312 -76.835938 166.53125 -70.203125 C 163.988281 -63.578125 160.421875 -56.972656 155.828125 -50.390625 C 151.242188 -43.816406 145.6875 -37.460938 139.15625 -31.328125 C 132.632812 -25.203125 125.382812 -19.796875 117.40625 -15.109375 C 99.957031 -4.835938 81.757812 0.296875 62.8125 0.296875 L 61.46875 0.296875 C 61.070312 0.296875 60.625 0.25 60.125 0.15625 C 60.71875 17.5 63.660156 29.613281 68.953125 36.5 C 69.347656 36.988281 69.546875 37.382812 69.546875 37.6875 L 69.546875 38.4375 C 69.546875 38.9375 69.097656 39.1875 68.203125 39.1875 C 64.410156 39.1875 60.867188 31.304688 57.578125 15.546875 C 56.578125 10.765625 55.976562 5.53125 55.78125 -0.15625 C 41.125 -2.144531 31.304688 -9.671875 26.328125 -22.734375 C 24.722656 -27.015625 23.921875 -31.953125 23.921875 -37.546875 C 23.921875 -60.867188 34.539062 -86.191406 55.78125 -113.515625 C 39.03125 -117.304688 28.363281 -125.929688 23.78125 -139.390625 C 22.382812 -143.578125 21.6875 -148.0625 21.6875 -152.84375 C 21.6875 -157.632812 22.984375 -162.644531 25.578125 -167.875 C 28.171875 -173.113281 31.785156 -178.195312 36.421875 -183.125 C 41.054688 -188.0625 46.585938 -192.722656 53.015625 -197.109375 C 59.453125 -201.503906 66.507812 -205.347656 74.1875 -208.640625 C 90.9375 -215.816406 107.984375 -219.40625 125.328125 -219.40625 C 133.398438 -219.40625 137.4375 -218.554688 137.4375 -216.859375 C 137.4375 -216.066406 136.789062 -215.671875 135.5 -215.671875 L 124.578125 -216.265625 C 103.546875 -216.265625 82.507812 -209.1875 61.46875 -195.03125 C 47.90625 -185.957031 38.285156 -175.734375 32.609375 -164.359375 C 29.609375 -158.484375 28.109375 -153.222656 28.109375 -148.578125 C 28.109375 -143.941406 28.78125 -140.101562 30.125 -137.0625 C 31.476562 -134.03125 33.398438 -131.21875 35.890625 -128.625 C 41.273438 -123.039062 48.804688 -119.148438 58.484375 -116.953125 C 79.421875 -142.878906 104.796875 -164.613281 134.609375 -182.15625 C 165.710938 -200.40625 194.023438 -209.53125 219.546875 -209.53125 Z M 229.875 -198.015625 C 229.875 -203.296875 225.984375 -205.9375 218.203125 -205.9375 C 203.847656 -205.9375 183.257812 -196.71875 156.4375 -178.28125 C 130.3125 -160.53125 106.132812 -139.738281 83.90625 -115.90625 C 111.519531 -118.894531 142.726562 -130.210938 177.53125 -149.859375 C 198.164062 -161.523438 213.269531 -172.84375 222.84375 -183.8125 C 227.53125 -189.195312 229.875 -193.929688 229.875 -198.015625 Z M 60.125 -3.734375 C 60.820312 -3.640625 61.519531 -3.59375 62.21875 -3.59375 L 64.453125 -3.59375 C 77.117188 -3.59375 91.03125 -9.273438 106.1875 -20.640625 C 119.644531 -30.804688 131.457031 -43.269531 141.625 -58.03125 C 151.601562 -72.582031 156.59375 -84.546875 156.59375 -93.921875 C 156.59375 -98.109375 155.492188 -101.097656 153.296875 -102.890625 C 151.097656 -104.691406 147.378906 -105.59375 142.140625 -105.59375 C 136.910156 -105.59375 131.15625 -104.394531 124.875 -102 C 118.59375 -99.601562 112.382812 -96.210938 106.25 -91.828125 C 100.125 -87.441406 94.269531 -82.15625 88.6875 -75.96875 C 83.101562 -69.789062 78.164062 -62.914062 73.875 -55.34375 C 64.707031 -38.988281 60.125 -21.835938 60.125 -3.890625 Z M 60.125 -3.734375 "/></g></g></g></g></g></g><g transform="matrix(1, 0, 0, 1, 174, 152)"><g clip-path="url(#33861a57e4)"><g fill="#f3efeb" fill-opacity="1"><g transform="translate(0.2557, 90.460792)"><g><path d="M 30.28125 1.109375 C 27.25 1.109375 24.179688 0.554688 21.078125 -0.546875 C 17.972656 -1.660156 15.125 -3.34375 12.53125 -5.59375 C 9.945312 -7.851562 7.878906 -10.679688 6.328125 -14.078125 C 4.773438 -17.484375 4 -21.476562 4 -26.0625 C 4 -32.125 5.347656 -37.410156 8.046875 -41.921875 C 10.742188 -46.429688 14.3125 -49.941406 18.75 -52.453125 C 23.1875 -54.972656 27.992188 -56.234375 33.171875 -56.234375 C 37.828125 -56.234375 41.800781 -55.328125 45.09375 -53.515625 C 48.382812 -51.703125 50.929688 -49.316406 52.734375 -46.359375 C 54.546875 -43.398438 55.492188 -40.148438 55.578125 -36.609375 L 12.203125 -36.609375 C 11.984375 -34.972656 11.875 -33.269531 11.875 -31.5 C 11.875 -26.46875 12.851562 -22.007812 14.8125 -18.125 C 16.769531 -14.25 19.539062 -11.238281 23.125 -9.09375 C 26.707031 -6.945312 30.90625 -5.875 35.71875 -5.875 C 40.007812 -5.875 43.742188 -6.757812 46.921875 -8.53125 C 50.097656 -10.3125 52.941406 -12.644531 55.453125 -15.53125 L 56.453125 -14.53125 C 54.609375 -11.945312 52.390625 -9.453125 49.796875 -7.046875 C 47.210938 -4.640625 44.3125 -2.675781 41.09375 -1.15625 C 37.875 0.351562 34.269531 1.109375 30.28125 1.109375 Z M 12.53125 -38.046875 L 46.703125 -38.046875 C 46.328125 -40.554688 45.414062 -43.050781 43.96875 -45.53125 C 42.53125 -48.007812 40.609375 -50.078125 38.203125 -51.734375 C 35.804688 -53.398438 32.90625 -54.234375 29.5 -54.234375 C 24.769531 -54.316406 20.976562 -52.800781 18.125 -49.6875 C 15.28125 -46.582031 13.414062 -42.703125 12.53125 -38.046875 Z M 12.53125 -38.046875 "/></g></g></g><g clip-path="url(#8de256d20f)"><g fill="#f3efeb" fill-opacity="1"><g transform="translate(59.820389, 90.460792)"><g><path d="M 4.21875 0 L 4.21875 -1.4375 C 5.914062 -1.957031 7.078125 -3.066406 7.703125 -4.765625 C 8.335938 -6.472656 8.65625 -9.582031 8.65625 -14.09375 L 8.65625 -72.875 C 8.65625 -75.46875 8.488281 -77.410156 8.15625 -78.703125 C 7.820312 -79.992188 7.335938 -80.9375 6.703125 -81.53125 C 6.078125 -82.125 5.25 -82.640625 4.21875 -83.078125 L 4.21875 -84.296875 L 16.3125 -89.625 L 17.296875 -88.84375 L 17.296875 -14.09375 C 17.296875 -9.582031 17.609375 -6.472656 18.234375 -4.765625 C 18.867188 -3.066406 20.035156 -1.957031 21.734375 -1.4375 L 21.734375 0 Z M 4.21875 0 "/></g></g></g></g><g fill="#f3efeb" fill-opacity="1"><g transform="translate(86.108723, 90.460792)"><g><path d="M 30.28125 1.109375 C 27.25 1.109375 24.179688 0.554688 21.078125 -0.546875 C 17.972656 -1.660156 15.125 -3.34375 12.53125 -5.59375 C 9.945312 -7.851562 7.878906 -10.679688 6.328125 -14.078125 C 4.773438 -17.484375 4 -21.476562 4 -26.0625 C 4 -32.125 5.347656 -37.410156 8.046875 -41.921875 C 10.742188 -46.429688 14.3125 -49.941406 18.75 -52.453125 C 23.1875 -54.972656 27.992188 -56.234375 33.171875 -56.234375 C 37.828125 -56.234375 41.800781 -55.328125 45.09375 -53.515625 C 48.382812 -51.703125 50.929688 -49.316406 52.734375 -46.359375 C 54.546875 -43.398438 55.492188 -40.148438 55.578125 -36.609375 L 12.203125 -36.609375 C 11.984375 -34.972656 11.875 -33.269531 11.875 -31.5 C 11.875 -26.46875 12.851562 -22.007812 14.8125 -18.125 C 16.769531 -14.25 19.539062 -11.238281 23.125 -9.09375 C 26.707031 -6.945312 30.90625 -5.875 35.71875 -5.875 C 40.007812 -5.875 43.742188 -6.757812 46.921875 -8.53125 C 50.097656 -10.3125 52.941406 -12.644531 55.453125 -15.53125 L 56.453125 -14.53125 C 54.609375 -11.945312 52.390625 -9.453125 49.796875 -7.046875 C 47.210938 -4.640625 44.3125 -2.675781 41.09375 -1.15625 C 37.875 0.351562 34.269531 1.109375 30.28125 1.109375 Z M 12.53125 -38.046875 L 46.703125 -38.046875 C 46.328125 -40.554688 45.414062 -43.050781 43.96875 -45.53125 C 42.53125 -48.007812 40.609375 -50.078125 38.203125 -51.734375 C 35.804688 -53.398438 32.90625 -54.234375 29.5 -54.234375 C 24.769531 -54.316406 20.976562 -52.800781 18.125 -49.6875 C 15.28125 -46.582031 13.414062 -42.703125 12.53125 -38.046875 Z M 12.53125 -38.046875 "/></g></g></g><g clip-path="url(#e9fde7fb07)"><g fill="#f3efeb" fill-opacity="1"><g transform="translate(145.673412, 90.460792)"><g><path d="M 32.5 1 C 28.351562 1 24.488281 0.164062 20.90625 -1.5 C 17.320312 -3.164062 14.53125 -5.066406 12.53125 -7.203125 L 8.875 0 L 7.765625 0 L 7.765625 -72.875 C 7.765625 -75.46875 7.597656 -77.410156 7.265625 -78.703125 C 6.929688 -79.992188 6.445312 -80.9375 5.8125 -81.53125 C 5.1875 -82.125 4.359375 -82.640625 3.328125 -83.078125 L 3.328125 -84.296875 L 15.421875 -89.625 L 16.421875 -88.84375 L 16.421875 -48.6875 C 19.378906 -50.6875 22.613281 -52.441406 26.125 -53.953125 C 29.632812 -55.472656 33.3125 -56.234375 37.15625 -56.234375 C 41.894531 -56.234375 46.070312 -55.066406 49.6875 -52.734375 C 53.3125 -50.410156 56.160156 -47.210938 58.234375 -43.140625 C 60.304688 -39.078125 61.34375 -34.421875 61.34375 -29.171875 C 61.34375 -24.066406 60.234375 -19.222656 58.015625 -14.640625 C 55.796875 -10.054688 52.539062 -6.320312 48.25 -3.4375 C 43.957031 -0.550781 38.707031 0.925781 32.5 1 Z M 16.421875 -18.75 C 16.421875 -16.082031 17.34375 -13.398438 19.1875 -10.703125 C 21.039062 -8.003906 23.460938 -5.75 26.453125 -3.9375 C 29.453125 -2.125 32.648438 -1.21875 36.046875 -1.21875 C 41.816406 -1.21875 46.101562 -3.195312 48.90625 -7.15625 C 51.71875 -11.113281 53.125 -16.304688 53.125 -22.734375 C 53.125 -25.835938 52.753906 -29.109375 52.015625 -32.546875 C 51.273438 -35.992188 50.070312 -39.234375 48.40625 -42.265625 C 46.75 -45.296875 44.570312 -47.769531 41.875 -49.6875 C 39.175781 -51.613281 35.867188 -52.578125 31.953125 -52.578125 C 29.066406 -52.578125 26.328125 -52.039062 23.734375 -50.96875 C 21.148438 -49.894531 18.710938 -48.582031 16.421875 -47.03125 Z M 16.421875 -18.75 "/></g></g></g></g><g fill="#f3efeb" fill-opacity="1"><g transform="translate(211.78245, 90.460792)"><g><path d="M 3.546875 0 L 3.546875 -1.4375 C 5.242188 -1.957031 6.40625 -3.066406 7.03125 -4.765625 C 7.664062 -6.472656 7.984375 -9.582031 7.984375 -14.09375 L 7.984375 -39.59375 C 7.984375 -42.1875 7.816406 -44.128906 7.484375 -45.421875 C 7.148438 -46.710938 6.671875 -47.65625 6.046875 -48.25 C 5.421875 -48.84375 4.585938 -49.359375 3.546875 -49.796875 L 3.546875 -51.03125 L 15.640625 -56.34375 L 16.640625 -55.578125 L 16.640625 -41.703125 C 17.523438 -43.847656 18.6875 -45.84375 20.125 -47.6875 C 21.570312 -49.539062 23.109375 -51.0625 24.734375 -52.25 C 26.429688 -53.5 28.296875 -54.472656 30.328125 -55.171875 C 32.367188 -55.878906 34.71875 -56.234375 37.375 -56.234375 C 39.59375 -56.234375 41.347656 -55.972656 42.640625 -55.453125 C 43.941406 -54.941406 44.59375 -54.207031 44.59375 -53.25 C 44.59375 -52.0625 44.019531 -50.707031 42.875 -49.1875 C 41.726562 -47.675781 40.15625 -46.921875 38.15625 -46.921875 C 36.675781 -46.921875 34.804688 -47.195312 32.546875 -47.75 C 30.296875 -48.300781 27.546875 -49.0625 24.296875 -50.03125 C 23.253906 -49.289062 22.160156 -48.160156 21.015625 -46.640625 C 19.867188 -45.128906 18.90625 -43.445312 18.125 -41.59375 C 17.351562 -39.75 16.894531 -37.9375 16.75 -36.15625 L 16.640625 -36.15625 L 16.640625 -14.09375 C 16.640625 -9.582031 16.953125 -6.472656 17.578125 -4.765625 C 18.210938 -3.066406 19.378906 -1.957031 21.078125 -1.4375 L 21.078125 0 Z M 3.546875 0 "/></g></g></g><g fill="#f3efeb" fill-opacity="1"><g transform="translate(258.369352, 90.460792)"><g><path d="M 46.46875 0 C 44.257812 0 43.15625 -1.109375 43.15625 -3.328125 L 43.15625 -23.296875 C 42.039062 -18.785156 40.300781 -14.679688 37.9375 -10.984375 C 35.570312 -7.285156 32.816406 -4.34375 29.671875 -2.15625 C 26.523438 0.0195312 23.101562 1.109375 19.40625 1.109375 C 16.675781 1.109375 14.125 0.554688 11.75 -0.546875 C 9.382812 -1.660156 7.476562 -3.289062 6.03125 -5.4375 C 4.59375 -7.582031 3.875 -10.242188 3.875 -13.421875 C 3.875 -17.265625 5.019531 -20.40625 7.3125 -22.84375 C 9.613281 -25.289062 12.664062 -27.289062 16.46875 -28.84375 C 20.28125 -30.394531 24.367188 -31.757812 28.734375 -32.9375 L 43.15625 -36.828125 C 42.851562 -42.222656 41.367188 -46.195312 38.703125 -48.75 C 36.046875 -51.300781 32.351562 -52.578125 27.625 -52.578125 C 24.289062 -52.578125 21.050781 -51.78125 17.90625 -50.1875 C 14.769531 -48.601562 11.796875 -46.109375 8.984375 -42.703125 L 7.984375 -43.59375 C 11.160156 -47.507812 14.765625 -50.59375 18.796875 -52.84375 C 22.828125 -55.101562 27.25 -56.234375 32.0625 -56.234375 C 38.789062 -56.234375 43.742188 -54.476562 46.921875 -50.96875 C 50.097656 -47.457031 51.6875 -42.554688 51.6875 -36.265625 L 51.6875 -14.09375 C 51.6875 -9.582031 52 -6.472656 52.625 -4.765625 C 53.257812 -3.066406 54.425781 -1.957031 56.125 -1.4375 L 56.125 0 Z M 12.203125 -16.53125 C 12.203125 -12.90625 13.289062 -10.148438 15.46875 -8.265625 C 17.65625 -6.378906 20.335938 -5.4375 23.515625 -5.4375 C 26.472656 -5.4375 29.148438 -6.265625 31.546875 -7.921875 C 33.953125 -9.585938 36.003906 -11.75 37.703125 -14.40625 C 39.410156 -17.070312 40.742188 -19.957031 41.703125 -23.0625 C 42.671875 -26.175781 43.15625 -29.175781 43.15625 -32.0625 L 43.15625 -35.390625 L 29.171875 -31.609375 C 26.429688 -30.867188 23.75 -29.890625 21.125 -28.671875 C 18.5 -27.453125 16.351562 -25.878906 14.6875 -23.953125 C 13.03125 -22.035156 12.203125 -19.5625 12.203125 -16.53125 Z M 12.203125 -16.53125 "/></g></g></g><g fill="#f3efeb" fill-opacity="1"><g transform="translate(317.157586, 90.460792)"><g><path d="M 20.96875 1.109375 C 17.488281 1.109375 14.75 -0.0859375 12.75 -2.484375 C 10.757812 -4.890625 9.765625 -8.976562 9.765625 -14.75 L 9.765625 -53.90625 L 2.65625 -53.90625 L 2.65625 -55.453125 L 16.859375 -69.109375 L 18.40625 -69.109375 L 18.40625 -55.453125 L 35.265625 -55.453125 L 34.71875 -53.90625 L 18.40625 -53.90625 L 18.40625 -14.75 C 18.40625 -10.976562 19.125 -8.296875 20.5625 -6.703125 C 22.007812 -5.117188 23.914062 -4.328125 26.28125 -4.328125 C 27.84375 -4.328125 29.546875 -4.75 31.390625 -5.59375 C 33.234375 -6.445312 35.082031 -7.945312 36.9375 -10.09375 L 37.9375 -9.09375 C 35.570312 -6.351562 32.960938 -3.96875 30.109375 -1.9375 C 27.265625 0.09375 24.21875 1.109375 20.96875 1.109375 Z M 20.96875 1.109375 "/></g></g></g><g fill="#f3efeb" fill-opacity="1"><g transform="translate(355.314468, 90.460792)"><g><path d="M 3.546875 0 L 3.546875 -1.4375 C 5.242188 -1.957031 6.40625 -3.066406 7.03125 -4.765625 C 7.664062 -6.472656 7.984375 -9.582031 7.984375 -14.09375 L 7.984375 -39.59375 C 7.984375 -42.1875 7.832031 -44.128906 7.53125 -45.421875 C 7.238281 -46.710938 6.757812 -47.65625 6.09375 -48.25 C 5.4375 -48.84375 4.585938 -49.359375 3.546875 -49.796875 L 3.546875 -51.03125 L 15.75 -56.34375 L 16.640625 -55.578125 L 16.640625 -14.09375 C 16.640625 -9.582031 16.972656 -6.472656 17.640625 -4.765625 C 18.304688 -3.066406 19.453125 -1.957031 21.078125 -1.4375 L 21.078125 0 Z M 5.546875 -69.21875 C 5.546875 -70.988281 6.132812 -72.460938 7.3125 -73.640625 C 8.5 -74.828125 9.941406 -75.421875 11.640625 -75.421875 C 13.421875 -75.421875 14.882812 -74.828125 16.03125 -73.640625 C 17.175781 -72.460938 17.75 -70.988281 17.75 -69.21875 C 17.75 -67.59375 17.15625 -66.164062 15.96875 -64.9375 C 14.789062 -63.71875 13.347656 -63.109375 11.640625 -63.109375 C 9.941406 -63.109375 8.5 -63.71875 7.3125 -64.9375 C 6.132812 -66.164062 5.546875 -67.59375 5.546875 -69.21875 Z M 5.546875 -69.21875 "/></g></g></g><g fill="#f3efeb" fill-opacity="1"><g transform="translate(380.271741, 90.460792)"><g><path d="M 33.0625 1.109375 C 29.507812 1.109375 26.015625 0.554688 22.578125 -0.546875 C 19.140625 -1.660156 16.015625 -3.363281 13.203125 -5.65625 C 10.390625 -7.945312 8.148438 -10.867188 6.484375 -14.421875 C 4.828125 -17.972656 4 -22.148438 4 -26.953125 C 4 -32.722656 5.363281 -37.804688 8.09375 -42.203125 C 10.832031 -46.609375 14.421875 -50.046875 18.859375 -52.515625 C 23.296875 -54.992188 28.03125 -56.234375 33.0625 -56.234375 C 36.53125 -56.234375 39.960938 -55.695312 43.359375 -54.625 C 46.765625 -53.550781 49.875 -51.867188 52.6875 -49.578125 C 55.5 -47.285156 57.753906 -44.363281 59.453125 -40.8125 C 61.148438 -37.269531 62 -33.019531 62 -28.0625 C 62 -23.332031 61.128906 -19.15625 59.390625 -15.53125 C 57.660156 -11.90625 55.351562 -8.851562 52.46875 -6.375 C 49.582031 -3.894531 46.4375 -2.023438 43.03125 -0.765625 C 39.632812 0.484375 36.3125 1.109375 33.0625 1.109375 Z M 12.53125 -33.28125 C 12.53125 -29.726562 13.082031 -26.082031 14.1875 -22.34375 C 15.300781 -18.613281 16.894531 -15.15625 18.96875 -11.96875 C 21.039062 -8.789062 23.535156 -6.203125 26.453125 -4.203125 C 29.378906 -2.210938 32.6875 -1.21875 36.375 -1.21875 C 40.375 -1.21875 43.628906 -2.160156 46.140625 -4.046875 C 48.660156 -5.929688 50.53125 -8.425781 51.75 -11.53125 C 52.96875 -14.632812 53.578125 -17.960938 53.578125 -21.515625 C 53.578125 -25.066406 52.984375 -28.78125 51.796875 -32.65625 C 50.617188 -36.539062 48.9375 -40.144531 46.75 -43.46875 C 44.570312 -46.800781 41.96875 -49.46875 38.9375 -51.46875 C 35.90625 -53.46875 32.578125 -54.351562 28.953125 -54.125 C 25.179688 -53.976562 22.070312 -52.941406 19.625 -51.015625 C 17.1875 -49.097656 15.394531 -46.585938 14.25 -43.484375 C 13.101562 -40.378906 12.53125 -36.976562 12.53125 -33.28125 Z M 12.53125 -33.28125 "/></g></g></g><g fill="#f3efeb" fill-opacity="1"><g transform="translate(447.046297, 90.460792)"><g><path d="M 3.546875 0 L 3.546875 -1.4375 C 5.242188 -1.957031 6.40625 -3.066406 7.03125 -4.765625 C 7.664062 -6.472656 7.984375 -9.582031 7.984375 -14.09375 L 7.984375 -39.59375 C 7.984375 -42.1875 7.832031 -44.128906 7.53125 -45.421875 C 7.238281 -46.710938 6.757812 -47.65625 6.09375 -48.25 C 5.4375 -48.84375 4.585938 -49.359375 3.546875 -49.796875 L 3.546875 -51.03125 L 15.75 -56.34375 L 16.640625 -55.578125 L 16.640625 -46.03125 C 19.890625 -48.625 23.546875 -50.972656 27.609375 -53.078125 C 31.679688 -55.179688 35.863281 -56.234375 40.15625 -56.234375 C 45.625 -56.234375 49.910156 -54.644531 53.015625 -51.46875 C 56.117188 -48.289062 57.671875 -43.445312 57.671875 -36.9375 L 57.671875 -14.09375 C 57.671875 -9.582031 57.984375 -6.472656 58.609375 -4.765625 C 59.242188 -3.066406 60.410156 -1.957031 62.109375 -1.4375 L 62.109375 0 L 44.59375 0 L 44.59375 -1.4375 C 46.289062 -1.957031 47.453125 -3.066406 48.078125 -4.765625 C 48.710938 -6.472656 49.03125 -9.582031 49.03125 -14.09375 L 49.03125 -34.71875 C 49.03125 -40.488281 47.804688 -44.90625 45.359375 -47.96875 C 42.921875 -51.039062 39.265625 -52.578125 34.390625 -52.578125 C 31.359375 -52.578125 28.34375 -51.78125 25.34375 -50.1875 C 22.351562 -48.601562 19.453125 -46.628906 16.640625 -44.265625 L 16.640625 -14.09375 C 16.640625 -9.582031 16.972656 -6.472656 17.640625 -4.765625 C 18.304688 -3.066406 19.453125 -1.957031 21.078125 -1.4375 L 21.078125 0 Z M 3.546875 0 "/></g></g></g></g></g><g transform="matrix(1, 0, 0, 1, 181, 267)"><g clip-path="url(#9a6a4292d9)"><g fill="#f3efeb" fill-opacity="1"><g transform="translate(1.020706, 30.584485)"><g><path d="M 26.230469 -12.421875 C 26.230469 -21.332031 19.949219 -25.980469 13.949219 -25.980469 C 9.191406 -25.980469 1.417969 -22.964844 1.417969 -12.386719 C 1.417969 -4.292969 7.453125 0.675781 13.949219 0.675781 C 20.195312 0.675781 26.230469 -3.621094 26.230469 -12.421875 Z M 4.222656 -13.203125 C 4.222656 -19.273438 7.171875 -25.378906 13.664062 -25.378906 C 20.765625 -25.378906 23.425781 -18.351562 23.425781 -11.535156 C 23.425781 -5.714844 20.90625 0.0351562 14.019531 0.0351562 C 6.707031 0.0351562 4.222656 -6.921875 4.222656 -13.203125 Z M 4.222656 -13.203125 "/></g></g></g><g fill="#f3efeb" fill-opacity="1"><g transform="translate(45.460352, 30.584485)"><g><path d="M 5.539062 0 C 5.359375 -1.917969 5.183594 -7.3125 5.183594 -13.027344 C 6.070312 -13.0625 6.992188 -13.0625 7.878906 -13.0625 C 9.796875 -13.0625 11.679688 -12.992188 13.59375 -12.882812 L 13.878906 -14.089844 C 11.640625 -13.878906 9.371094 -13.773438 7.132812 -13.773438 C 6.460938 -13.773438 5.820312 -13.773438 5.183594 -13.808594 C 5.183594 -17.78125 5.21875 -21.6875 5.324219 -24.632812 C 6.28125 -24.667969 7.242188 -24.667969 8.128906 -24.667969 C 11.039062 -24.667969 13.59375 -24.492188 16.257812 -23.851562 L 16.148438 -25.378906 C 13.808594 -25.308594 11.640625 -25.308594 8.980469 -25.308594 C 7.171875 -25.308594 5.148438 -25.308594 2.699219 -25.308594 C 2.910156 -21.757812 3.015625 -16.328125 3.015625 -11.359375 C 3.015625 -6.355469 2.910156 -1.773438 2.699219 0 Z M 5.539062 0 "/></g></g></g><g fill="#f3efeb" fill-opacity="1"><g transform="translate(78.933061, 30.584485)"><g/></g></g><g fill="#f3efeb" fill-opacity="1"><g transform="translate(106.727077, 30.584485)"><g><path d="M 0.886719 -23.851562 C 1.988281 -24.421875 4.332031 -24.667969 6.851562 -24.667969 C 6.921875 -19.664062 6.992188 -15.652344 6.992188 -11.679688 C 6.992188 -7.984375 6.957031 -4.332031 6.816406 0 L 9.230469 0 C 9.050781 -4.222656 8.980469 -7.808594 8.980469 -11.429688 C 8.980469 -15.511719 9.050781 -19.59375 9.15625 -24.667969 C 11.75 -24.667969 14.554688 -24.277344 15.652344 -23.851562 L 15.511719 -25.378906 C 14.269531 -25.308594 11.25 -25.238281 8.234375 -25.238281 C 5.253906 -25.238281 2.273438 -25.308594 1.101562 -25.449219 Z M 0.886719 -23.851562 "/></g></g></g><g fill="#f3efeb" fill-opacity="1"><g transform="translate(139.951327, 30.584485)"><g><path d="M 19.203125 -25.308594 C 19.308594 -21.15625 19.34375 -17.179688 19.34375 -13.808594 C 17.960938 -13.773438 15.9375 -13.738281 13.808594 -13.738281 C 10.257812 -13.738281 6.460938 -13.808594 4.863281 -13.914062 C 4.863281 -17.214844 4.96875 -21.15625 5.074219 -25.308594 L 2.734375 -25.308594 C 2.804688 -20.160156 2.875 -16.007812 2.875 -11.925781 C 2.875 -8.128906 2.839844 -4.402344 2.699219 0 L 5.109375 0 C 4.898438 -4.011719 4.863281 -7.132812 4.863281 -10.433594 C 4.863281 -11.289062 4.863281 -12.140625 4.863281 -13.0625 C 6.53125 -13.132812 9.972656 -13.167969 13.238281 -13.167969 C 15.617188 -13.167969 17.890625 -13.132812 19.34375 -13.097656 C 19.34375 -8.695312 19.308594 -5.074219 19.167969 0 L 21.582031 0 C 21.402344 -4.4375 21.296875 -8.234375 21.296875 -12.066406 C 21.296875 -16.113281 21.402344 -20.230469 21.546875 -25.308594 Z M 19.203125 -25.308594 "/></g></g></g><g fill="#f3efeb" fill-opacity="1"><g transform="translate(181.019275, 30.584485)"><g><path d="M 5.148438 -13.027344 C 6.035156 -13.0625 6.957031 -13.0625 7.84375 -13.0625 C 9.761719 -13.0625 11.679688 -12.992188 13.59375 -12.882812 L 13.878906 -14.089844 C 11.605469 -13.878906 9.335938 -13.773438 7.097656 -13.773438 C 6.460938 -13.773438 5.785156 -13.773438 5.148438 -13.808594 C 5.148438 -17.746094 5.21875 -21.652344 5.324219 -24.632812 C 6.496094 -24.667969 7.597656 -24.667969 8.660156 -24.667969 C 11.324219 -24.667969 13.773438 -24.527344 16.257812 -23.921875 L 16.148438 -25.378906 C 14.199219 -25.34375 12.386719 -25.308594 2.699219 -25.308594 C 2.910156 -21.757812 3.015625 -16.328125 3.015625 -11.359375 C 3.015625 -6.355469 2.910156 -1.773438 2.699219 0 C 12.566406 0 14.445312 0.0351562 16.398438 0.0703125 L 16.789062 -1.3125 C 14.339844 -0.746094 11.820312 -0.601562 9.121094 -0.601562 C 7.878906 -0.601562 6.636719 -0.640625 5.324219 -0.675781 C 5.21875 -3.015625 5.148438 -6.601562 5.148438 -10.542969 C 5.148438 -11.359375 5.148438 -12.175781 5.148438 -13.027344 Z M 5.148438 -13.027344 "/></g></g></g></g></g><g transform="matrix(1, 0, 0, 1, 341, 118)"><g clip-path="url(#cdbba0dcba)"><g fill="#f3efeb" fill-opacity="1"><g transform="translate(33.22626, 265.057781)"><g><path d="M 112.171875 -29.765625 C 98.015625 -29.765625 84.851562 -31.660156 72.6875 -35.453125 C 58.726562 -23.878906 48.257812 -15.847656 41.28125 -11.359375 C 28.3125 -3.285156 15.097656 0.75 1.640625 0.75 C -13.710938 0.75 -23.628906 -3.6875 -28.109375 -12.5625 C -29.410156 -15.25 -30.0625 -17.890625 -30.0625 -20.484375 C -30.0625 -23.078125 -29.613281 -25.171875 -28.71875 -26.765625 C -27.820312 -28.359375 -26.722656 -29.609375 -25.421875 -30.515625 C -22.734375 -32.410156 -19.59375 -33.359375 -16 -33.359375 C -11.019531 -33.359375 -8.53125 -31.113281 -8.53125 -26.625 C -8.53125 -24.625 -9.347656 -22.898438 -10.984375 -21.453125 C -12.628906 -20.015625 -14.875 -19.296875 -17.71875 -19.296875 C -20.5625 -19.296875 -22.679688 -19.789062 -24.078125 -20.78125 L -24.078125 -19.734375 C -24.078125 -8.773438 -15.101562 -3.296875 2.84375 -3.296875 C 15.300781 -3.296875 29.410156 -8.773438 45.171875 -19.734375 L 67.453125 -37.234375 C 53.296875 -42.523438 41.976562 -50.003906 33.5 -59.671875 C 25.320312 -68.847656 20.9375 -78.96875 20.34375 -90.03125 C 19.738281 -100.90625 23.328125 -110.179688 31.109375 -117.859375 C 39.285156 -125.929688 50.351562 -129.96875 64.3125 -129.96875 C 83.75 -129.96875 100.097656 -121.640625 113.359375 -104.984375 C 117.347656 -99.898438 120.738281 -94.46875 123.53125 -88.6875 C 155.539062 -119.394531 176.476562 -139.132812 186.34375 -147.90625 L 210.875 -169.15625 C 243.976562 -196.375 268.359375 -209.984375 284.015625 -209.984375 C 285.804688 -209.984375 286.703125 -209.679688 286.703125 -209.078125 C 286.703125 -208.378906 285.878906 -207.726562 284.234375 -207.125 C 282.585938 -206.53125 280.765625 -205.238281 278.765625 -203.25 C 276.773438 -201.257812 273.890625 -197.921875 270.109375 -193.234375 L 255.453125 -174.53125 L 154.203125 -39.9375 C 182.015625 -48.207031 203.695312 -63.007812 219.25 -84.34375 C 224.238281 -91.125 227.582031 -96.8125 229.28125 -101.40625 C 231.570312 -107.488281 232.96875 -110.53125 233.46875 -110.53125 C 233.757812 -110.53125 234.226562 -110.101562 234.875 -109.25 C 235.53125 -108.40625 235.78125 -106.609375 235.625 -103.859375 C 235.476562 -101.117188 234.753906 -97.878906 233.453125 -94.140625 C 232.160156 -90.398438 230.519531 -86.835938 228.53125 -83.453125 C 225.238281 -77.765625 219.800781 -71.332031 212.21875 -64.15625 C 196.96875 -49.300781 176.03125 -39.132812 149.40625 -33.65625 L 123.828125 0.15625 L 114.265625 -0.453125 C 111.078125 -0.648438 108.554688 -0.75 106.703125 -0.75 C 104.859375 -0.75 103.289062 -0.648438 102 -0.453125 L 97.8125 0.15625 L 119.953125 -27.21875 C 120.242188 -27.71875 120.539062 -28.191406 120.84375 -28.640625 C 121.144531 -29.085938 121.394531 -29.5625 121.59375 -30.0625 C 118.40625 -29.863281 115.265625 -29.765625 112.171875 -29.765625 Z M 125.625 -84.046875 C 129.71875 -73.578125 131.765625 -64.601562 131.765625 -57.125 C 131.765625 -49.65625 131.164062 -43.773438 129.96875 -39.484375 L 185.453125 -106.640625 C 222.046875 -149.210938 244.726562 -175.160156 253.5 -184.484375 C 262.269531 -193.804688 268.75 -200.410156 272.9375 -204.296875 L 262.921875 -200.109375 C 249.460938 -194.222656 230.21875 -180.460938 205.1875 -158.828125 L 173.78125 -130.421875 Z M 71.046875 -40.234375 C 90.484375 -57.578125 106.832031 -72.679688 120.09375 -85.546875 C 111.820312 -104.390625 99.207031 -116.753906 82.25 -122.640625 C 76.570312 -124.535156 71.015625 -125.484375 65.578125 -125.484375 C 60.148438 -125.484375 55.316406 -124.507812 51.078125 -122.5625 C 46.835938 -120.613281 43.125 -118.046875 39.9375 -114.859375 C 33.050781 -107.984375 29.609375 -99.804688 29.609375 -90.328125 C 29.609375 -73.679688 37.382812 -59.972656 52.9375 -49.203125 C 58.125 -45.617188 64.160156 -42.628906 71.046875 -40.234375 Z M 76.28125 -38.59375 C 87.25 -35.5 99.507812 -33.953125 113.0625 -33.953125 C 116.550781 -33.953125 120.039062 -34.101562 123.53125 -34.40625 C 125.820312 -40.28125 126.96875 -45.960938 126.96875 -51.453125 C 126.96875 -61.617188 125.328125 -71.335938 122.046875 -80.609375 C 99.609375 -59.472656 84.351562 -45.46875 76.28125 -38.59375 Z M 76.28125 -38.59375 "/></g></g></g></g></g><g clip-path="url(#9c95ab39b0)"><g transform="matrix(1, 0, 0, 1, 589, 295)"><g clip-path="url(#ba4f8a2c77)"><g fill="#f3efeb" fill-opacity="1"><g transform="translate(0.937951, 88.513513)"><g><path d="M 3.546875 0 L 3.546875 -1.4375 C 5.242188 -1.957031 6.40625 -3.066406 7.03125 -4.765625 C 7.664062 -6.472656 7.984375 -9.582031 7.984375 -14.09375 L 7.984375 -39.59375 C 7.984375 -42.1875 7.816406 -44.128906 7.484375 -45.421875 C 7.148438 -46.710938 6.671875 -47.65625 6.046875 -48.25 C 5.421875 -48.84375 4.585938 -49.359375 3.546875 -49.796875 L 3.546875 -51.03125 L 15.640625 -56.34375 L 16.640625 -55.578125 L 16.640625 -41.703125 C 17.523438 -43.847656 18.6875 -45.84375 20.125 -47.6875 C 21.570312 -49.539062 23.109375 -51.0625 24.734375 -52.25 C 26.429688 -53.5 28.296875 -54.472656 30.328125 -55.171875 C 32.367188 -55.878906 34.71875 -56.234375 37.375 -56.234375 C 39.59375 -56.234375 41.347656 -55.972656 42.640625 -55.453125 C 43.941406 -54.941406 44.59375 -54.207031 44.59375 -53.25 C 44.59375 -52.0625 44.019531 -50.707031 42.875 -49.1875 C 41.726562 -47.675781 40.15625 -46.921875 38.15625 -46.921875 C 36.675781 -46.921875 34.804688 -47.195312 32.546875 -47.75 C 30.296875 -48.300781 27.546875 -49.0625 24.296875 -50.03125 C 23.253906 -49.289062 22.160156 -48.160156 21.015625 -46.640625 C 19.867188 -45.128906 18.90625 -43.445312 18.125 -41.59375 C 17.351562 -39.75 16.894531 -37.9375 16.75 -36.15625 L 16.640625 -36.15625 L 16.640625 -14.09375 C 16.640625 -9.582031 16.953125 -6.472656 17.578125 -4.765625 C 18.210938 -3.066406 19.378906 -1.957031 21.078125 -1.4375 L 21.078125 0 Z M 3.546875 0 "/></g></g></g><g fill="#f3efeb" fill-opacity="1"><g transform="translate(47.524853, 88.513513)"><g><path d="M 20.96875 1.109375 C 17.488281 1.109375 14.75 -0.0859375 12.75 -2.484375 C 10.757812 -4.890625 9.765625 -8.976562 9.765625 -14.75 L 9.765625 -53.90625 L 2.65625 -53.90625 L 2.65625 -55.453125 L 16.859375 -69.109375 L 18.40625 -69.109375 L 18.40625 -55.453125 L 35.265625 -55.453125 L 34.71875 -53.90625 L 18.40625 -53.90625 L 18.40625 -14.75 C 18.40625 -10.976562 19.125 -8.296875 20.5625 -6.703125 C 22.007812 -5.117188 23.914062 -4.328125 26.28125 -4.328125 C 27.84375 -4.328125 29.546875 -4.75 31.390625 -5.59375 C 33.234375 -6.445312 35.082031 -7.945312 36.9375 -10.09375 L 37.9375 -9.09375 C 35.570312 -6.351562 32.960938 -3.96875 30.109375 -1.9375 C 27.265625 0.09375 24.21875 1.109375 20.96875 1.109375 Z M 20.96875 1.109375 "/></g></g></g><g fill="#f3efeb" fill-opacity="1"><g transform="translate(85.681735, 88.513513)"><g><path d="M 25.0625 1 C 20.625 1 16.613281 0.445312 13.03125 -0.65625 C 9.445312 -1.769531 6.726562 -2.921875 4.875 -4.109375 L 3.875 -17.53125 L 4.875 -17.75 C 7.25 -12.5 10.359375 -8.375 14.203125 -5.375 C 18.046875 -2.382812 22.484375 -0.851562 27.515625 -0.78125 C 30.984375 -0.78125 33.84375 -1.722656 36.09375 -3.609375 C 38.351562 -5.492188 39.484375 -7.988281 39.484375 -11.09375 C 39.484375 -13.75 38.722656 -15.890625 37.203125 -17.515625 C 35.691406 -19.148438 33.695312 -20.484375 31.21875 -21.515625 C 28.75 -22.554688 26.070312 -23.519531 23.1875 -24.40625 C 19.707031 -25.507812 16.597656 -26.671875 13.859375 -27.890625 C 11.128906 -29.117188 8.988281 -30.726562 7.4375 -32.71875 C 5.882812 -34.71875 5.109375 -37.378906 5.109375 -40.703125 C 5.109375 -45.066406 6.863281 -48.742188 10.375 -51.734375 C 13.882812 -54.734375 18.859375 -56.234375 25.296875 -56.234375 C 28.910156 -56.234375 32.253906 -55.921875 35.328125 -55.296875 C 38.398438 -54.671875 40.785156 -53.988281 42.484375 -53.25 L 42.921875 -41.921875 L 41.8125 -41.703125 C 40.039062 -45.703125 37.488281 -48.882812 34.15625 -51.25 C 30.832031 -53.613281 27.210938 -54.796875 23.296875 -54.796875 C 19.523438 -54.796875 16.507812 -53.941406 14.25 -52.234375 C 12 -50.535156 10.875 -48.285156 10.875 -45.484375 C 10.875 -43.191406 11.59375 -41.265625 13.03125 -39.703125 C 14.476562 -38.148438 16.398438 -36.835938 18.796875 -35.765625 C 21.203125 -34.691406 23.847656 -33.675781 26.734375 -32.71875 C 28.878906 -32.050781 31.039062 -31.328125 33.21875 -30.546875 C 35.40625 -29.773438 37.398438 -28.816406 39.203125 -27.671875 C 41.015625 -26.523438 42.492188 -25.046875 43.640625 -23.234375 C 44.785156 -21.421875 45.359375 -19.113281 45.359375 -16.3125 C 45.359375 -13.195312 44.597656 -10.328125 43.078125 -7.703125 C 41.566406 -5.078125 39.296875 -2.988281 36.265625 -1.4375 C 33.234375 0.113281 29.5 0.925781 25.0625 1 Z M 25.0625 1 "/></g></g></g></g></g></g><g transform="matrix(1, 0, 0, 1, 249, 102)"><g clip-path="url(#8c6fdcc26d)"><g fill="#f3efeb" fill-opacity="1"><g transform="translate(1.723437, 30.301359)"><g><path d="M 18.527344 -25.484375 L 16.824219 -25.308594 C 16.148438 -23.320312 12.316406 -16.46875 10.257812 -13.097656 C 7.984375 -16.964844 4.792969 -22.789062 3.65625 -25.628906 L 0.566406 -25.308594 C 3.125 -21.722656 6.636719 -15.296875 8.519531 -11.359375 C 8.519531 -10.753906 8.554688 -10.117188 8.554688 -9.40625 C 8.554688 -6.566406 8.375 -2.910156 8.164062 0 L 10.933594 0 C 10.71875 -3.015625 10.542969 -6.601562 10.542969 -9.371094 C 10.542969 -10.292969 10.578125 -11.144531 10.613281 -11.855469 C 13.238281 -17.039062 17.039062 -23.816406 18.527344 -25.484375 Z M 18.527344 -25.484375 "/></g></g></g><g fill="#f3efeb" fill-opacity="1"><g transform="translate(37.361151, 30.301359)"><g><path d="M 9.867188 -24.988281 C 6.886719 -16.648438 1.347656 -2.554688 -0.25 0.214844 L 1.457031 0 C 2.023438 -2.199219 3.726562 -6.742188 5.609375 -11.570312 C 6.992188 -11.640625 9.085938 -11.679688 11.109375 -11.679688 C 12.566406 -11.679688 13.984375 -11.640625 15.085938 -11.605469 C 16.789062 -6.78125 18.386719 -2.023438 19.132812 0.25 L 22.328125 0 C 19.488281 -6 13.984375 -19.488281 11.996094 -25.734375 Z M 10.1875 -23.390625 C 11.214844 -21.792969 13.097656 -17.109375 14.800781 -12.316406 C 13.664062 -12.28125 12.246094 -12.246094 10.824219 -12.246094 C 8.980469 -12.246094 7.132812 -12.28125 5.890625 -12.386719 C 7.417969 -16.363281 9.015625 -20.375 10.1875 -23.390625 Z M 10.1875 -23.390625 "/></g></g></g><g fill="#f3efeb" fill-opacity="1"><g transform="translate(76.654493, 30.301359)"><g><path d="M 12.03125 0 C 14.941406 -8.375 19.769531 -21.722656 21.757812 -25.484375 L 19.914062 -25.308594 C 18.8125 -20.90625 13.59375 -6.390625 11.785156 -2.234375 C 8.730469 -9.371094 4.578125 -20.835938 3.160156 -25.628906 L 0.25 -25.308594 C 3.230469 -18.953125 8.449219 -5.464844 10.328125 0.355469 Z M 12.03125 0 "/></g></g></g><g fill="#f3efeb" fill-opacity="1"><g transform="translate(115.025073, 30.301359)"><g><path d="M 3.867188 0 C 3.621094 -2.875 3.515625 -8.554688 3.515625 -13.808594 C 3.515625 -17.320312 3.550781 -20.65625 3.621094 -22.894531 C 8.625 -15.6875 13.949219 -7.347656 18.671875 0.425781 L 21.15625 -0.214844 C 21.011719 -3.976562 20.976562 -8.589844 20.976562 -12.921875 C 20.976562 -18.457031 21.046875 -23.425781 21.226562 -25.308594 L 19.914062 -25.308594 C 20.054688 -23.179688 20.089844 -19.023438 20.089844 -14.625 C 20.089844 -10.222656 20.054688 -5.539062 19.984375 -2.34375 C 14.625 -9.726562 9.691406 -17.78125 4.863281 -25.734375 L 2.554688 -24.917969 C 2.699219 -21.863281 2.734375 -17.003906 2.734375 -12.316406 C 2.734375 -7.027344 2.660156 -1.953125 2.519531 0 Z M 3.867188 0 "/></g></g></g><g fill="#f3efeb" fill-opacity="1"><g transform="translate(155.560631, 30.301359)"><g><path d="M 5.148438 -13.027344 C 6.035156 -13.0625 6.957031 -13.0625 7.84375 -13.0625 C 9.761719 -13.0625 11.679688 -12.992188 13.59375 -12.882812 L 13.878906 -14.089844 C 11.605469 -13.878906 9.335938 -13.773438 7.097656 -13.773438 C 6.460938 -13.773438 5.785156 -13.773438 5.148438 -13.808594 C 5.148438 -17.746094 5.21875 -21.652344 5.324219 -24.632812 C 6.496094 -24.667969 7.597656 -24.667969 8.660156 -24.667969 C 11.324219 -24.667969 13.773438 -24.527344 16.257812 -23.921875 L 16.148438 -25.378906 C 14.199219 -25.34375 12.386719 -25.308594 2.699219 -25.308594 C 2.910156 -21.757812 3.015625 -16.328125 3.015625 -11.359375 C 3.015625 -6.355469 2.910156 -1.773438 2.699219 0 C 12.566406 0 14.445312 0.0351562 16.398438 0.0703125 L 16.789062 -1.3125 C 14.339844 -0.746094 11.820312 -0.601562 9.121094 -0.601562 C 7.878906 -0.601562 6.636719 -0.640625 5.324219 -0.675781 C 5.21875 -3.015625 5.148438 -6.601562 5.148438 -10.542969 C 5.148438 -11.359375 5.148438 -12.175781 5.148438 -13.027344 Z M 5.148438 -13.027344 "/></g></g></g><g fill="#f3efeb" fill-opacity="1"><g transform="translate(190.062596, 30.301359)"><g><path d="M 19.203125 -25.308594 C 19.308594 -21.15625 19.34375 -17.179688 19.34375 -13.808594 C 17.960938 -13.773438 15.9375 -13.738281 13.808594 -13.738281 C 10.257812 -13.738281 6.460938 -13.808594 4.863281 -13.914062 C 4.863281 -17.214844 4.96875 -21.15625 5.074219 -25.308594 L 2.734375 -25.308594 C 2.804688 -20.160156 2.875 -16.007812 2.875 -11.925781 C 2.875 -8.128906 2.839844 -4.402344 2.699219 0 L 5.109375 0 C 4.898438 -4.011719 4.863281 -7.132812 4.863281 -10.433594 C 4.863281 -11.289062 4.863281 -12.140625 4.863281 -13.0625 C 6.53125 -13.132812 9.972656 -13.167969 13.238281 -13.167969 C 15.617188 -13.167969 17.890625 -13.132812 19.34375 -13.097656 C 19.34375 -8.695312 19.308594 -5.074219 19.167969 0 L 21.582031 0 C 21.402344 -4.4375 21.296875 -8.234375 21.296875 -12.066406 C 21.296875 -16.113281 21.402344 -20.230469 21.546875 -25.308594 Z M 19.203125 -25.308594 "/></g></g></g></g></g><g clip-path="url(#57839b0b6b)"><g transform="matrix(1, 0, 0, 1, 205, 440)"><g clip-path="url(#1819b20b06)"><g fill="#f3efeb" fill-opacity="1"><g transform="translate(2.321489, 45.119321)"><g><path d="M 28.546875 -17.625 C 28.546875 -30.878906 22.390625 -36.441406 15.488281 -36.441406 C 9.382812 -36.441406 2.132812 -31.128906 2.132812 -17.625 C 2.132812 -6.800781 7.148438 0.894531 15.488281 0.894531 C 22.636719 0.894531 28.546875 -6.453125 28.546875 -17.625 Z M 7.347656 -17.226562 C 7.347656 -25.867188 8.390625 -35.445312 15.140625 -35.445312 C 21.894531 -35.445312 23.332031 -25.617188 23.332031 -16.183594 C 23.332031 -9.53125 21.84375 -0.0507812 15.6875 -0.0507812 C 8.984375 -0.0507812 7.347656 -10.277344 7.347656 -17.226562 Z M 7.347656 -17.226562 "/></g></g></g><g fill="#f3efeb" fill-opacity="1"><g transform="translate(44.718812, 45.119321)"><g><path d="M 4.765625 -31.476562 C 6.652344 -34.601562 9.433594 -35.644531 11.417969 -35.644531 C 15.242188 -35.644531 17.625 -32.617188 17.625 -25.417969 C 17.625 -14.496094 10.078125 -7.792969 0.347656 -1.886719 L 0.347656 0 L 23.035156 0 L 24.128906 -3.722656 C 19.3125 -2.332031 11.367188 -2.285156 3.523438 -2.285156 C 9.480469 -6.355469 23.136719 -16.53125 23.136719 -26.558594 C 23.136719 -32.765625 18.617188 -36.488281 11.714844 -36.488281 C 8.488281 -36.488281 5.164062 -35 3.328125 -33.511719 Z M 4.765625 -31.476562 "/></g></g></g><g fill="#f3efeb" fill-opacity="1"><g transform="translate(82.052294, 45.119321)"><g><path d="M 2.332031 -1.6875 C 2.332031 -0.347656 3.375 0.695312 4.714844 0.695312 C 6.058594 0.695312 7.148438 -0.347656 7.148438 -1.6875 C 7.148438 -3.027344 6.058594 -4.121094 4.714844 -4.121094 C 3.375 -4.121094 2.332031 -3.027344 2.332031 -1.6875 Z M 2.332031 -1.6875 "/></g></g></g><g fill="#f3efeb" fill-opacity="1"><g transform="translate(105.73322, 45.119321)"><g><path d="M 4.765625 -31.476562 C 6.652344 -34.601562 9.433594 -35.644531 11.417969 -35.644531 C 15.242188 -35.644531 17.625 -32.617188 17.625 -25.417969 C 17.625 -14.496094 10.078125 -7.792969 0.347656 -1.886719 L 0.347656 0 L 23.035156 0 L 24.128906 -3.722656 C 19.3125 -2.332031 11.367188 -2.285156 3.523438 -2.285156 C 9.480469 -6.355469 23.136719 -16.53125 23.136719 -26.558594 C 23.136719 -32.765625 18.617188 -36.488281 11.714844 -36.488281 C 8.488281 -36.488281 5.164062 -35 3.328125 -33.511719 Z M 4.765625 -31.476562 "/></g></g></g><g fill="#f3efeb" fill-opacity="1"><g transform="translate(143.066702, 45.119321)"><g><path d="M 6.253906 -36.441406 C 5.660156 -34.601562 3.824219 -33.660156 1.789062 -33.660156 C 1.488281 -33.660156 1.242188 -33.660156 0.941406 -33.710938 L 1.289062 -32.417969 C 2.433594 -32.417969 4.171875 -32.867188 4.667969 -33.164062 C 4.867188 -28.148438 4.914062 -23.136719 4.914062 -18.019531 C 4.914062 -12.261719 4.816406 -6.304688 4.617188 0 L 9.480469 0 C 9.183594 -5.710938 8.984375 -11.417969 8.984375 -17.175781 C 8.984375 -23.582031 9.183594 -29.984375 9.632812 -36.441406 Z M 6.253906 -36.441406 "/></g></g></g><g fill="#f3efeb" fill-opacity="1"><g transform="translate(169.031324, 45.119321)"><g><path d="M 2.332031 -1.6875 C 2.332031 -0.347656 3.375 0.695312 4.714844 0.695312 C 6.058594 0.695312 7.148438 -0.347656 7.148438 -1.6875 C 7.148438 -3.027344 6.058594 -4.121094 4.714844 -4.121094 C 3.375 -4.121094 2.332031 -3.027344 2.332031 -1.6875 Z M 2.332031 -1.6875 "/></g></g></g><g fill="#f3efeb" fill-opacity="1"><g transform="translate(192.71225, 45.119321)"><g><path d="M 4.765625 -31.476562 C 6.652344 -34.601562 9.433594 -35.644531 11.417969 -35.644531 C 15.242188 -35.644531 17.625 -32.617188 17.625 -25.417969 C 17.625 -14.496094 10.078125 -7.792969 0.347656 -1.886719 L 0.347656 0 L 23.035156 0 L 24.128906 -3.722656 C 19.3125 -2.332031 11.367188 -2.285156 3.523438 -2.285156 C 9.480469 -6.355469 23.136719 -16.53125 23.136719 -26.558594 C 23.136719 -32.765625 18.617188 -36.488281 11.714844 -36.488281 C 8.488281 -36.488281 5.164062 -35 3.328125 -33.511719 Z M 4.765625 -31.476562 "/></g></g></g><g fill="#f3efeb" fill-opacity="1"><g transform="translate(230.045732, 45.119321)"><g><path d="M 28.546875 -17.625 C 28.546875 -30.878906 22.390625 -36.441406 15.488281 -36.441406 C 9.382812 -36.441406 2.132812 -31.128906 2.132812 -17.625 C 2.132812 -6.800781 7.148438 0.894531 15.488281 0.894531 C 22.636719 0.894531 28.546875 -6.453125 28.546875 -17.625 Z M 7.347656 -17.226562 C 7.347656 -25.867188 8.390625 -35.445312 15.140625 -35.445312 C 21.894531 -35.445312 23.332031 -25.617188 23.332031 -16.183594 C 23.332031 -9.53125 21.84375 -0.0507812 15.6875 -0.0507812 C 8.984375 -0.0507812 7.347656 -10.277344 7.347656 -17.226562 Z M 7.347656 -17.226562 "/></g></g></g><g fill="#f3efeb" fill-opacity="1"><g transform="translate(272.443055, 45.119321)"><g><path d="M 4.765625 -31.476562 C 6.652344 -34.601562 9.433594 -35.644531 11.417969 -35.644531 C 15.242188 -35.644531 17.625 -32.617188 17.625 -25.417969 C 17.625 -14.496094 10.078125 -7.792969 0.347656 -1.886719 L 0.347656 0 L 23.035156 0 L 24.128906 -3.722656 C 19.3125 -2.332031 11.367188 -2.285156 3.523438 -2.285156 C 9.480469 -6.355469 23.136719 -16.53125 23.136719 -26.558594 C 23.136719 -32.765625 18.617188 -36.488281 11.714844 -36.488281 C 8.488281 -36.488281 5.164062 -35 3.328125 -33.511719 Z M 4.765625 -31.476562 "/></g></g></g><g fill="#f3efeb" fill-opacity="1"><g transform="translate(309.776537, 45.119321)"><g><path d="M 2.132812 -14.746094 C 2.132812 -3.871094 8.636719 0.894531 15.042969 0.894531 C 21.347656 0.894531 27.503906 -4.070312 27.503906 -11.816406 C 27.503906 -19.90625 22.441406 -23.78125 16.730469 -23.78125 C 13.554688 -23.78125 11.171875 -22.835938 9.382812 -21.746094 L 10.523438 -19.710938 C 12.113281 -21.597656 13.75 -22.789062 15.789062 -22.789062 C 20.601562 -22.789062 22.488281 -17.128906 22.488281 -11.019531 C 22.488281 -5.164062 20.304688 -0.0507812 15.242188 -0.0507812 C 10.226562 -0.0507812 7.050781 -6.304688 7.050781 -16.929688 C 7.050781 -30.679688 11.46875 -35.148438 18.46875 -35.148438 C 18.667969 -35.148438 18.914062 -35.148438 19.164062 -35.148438 L 18.667969 -37.035156 C 6.75 -34.851562 2.132812 -24.425781 2.132812 -14.746094 Z M 2.132812 -14.746094 "/></g></g></g></g></g></g></g></g></svg>